<svg width="130" height="28" viewBox="0 0 130 28" fill="none" xmlns="http://www.w3.org/2000/svg">
<path d="M4.49609 11.8477V27H0.259766V7.98047H4.25L4.49609 11.8477ZM3.81055 16.7871L2.36914 16.7695C2.36914 15.457 2.5332 14.2441 2.86133 13.1309C3.18945 12.0176 3.66992 11.0508 4.30273 10.2305C4.93555 9.39844 5.7207 8.75977 6.6582 8.31445C7.60742 7.85742 8.70312 7.62891 9.94531 7.62891C10.8125 7.62891 11.6035 7.75781 12.3184 8.01562C13.0449 8.26172 13.6719 8.6543 14.1992 9.19336C14.7383 9.73242 15.1484 10.4238 15.4297 11.2676C15.7227 12.1113 15.8691 13.1309 15.8691 14.3262V27H11.6328V14.6953C11.6328 13.7695 11.4922 13.043 11.2109 12.5156C10.9414 11.9883 10.5488 11.6133 10.0332 11.3906C9.5293 11.1562 8.92578 11.0391 8.22266 11.0391C7.42578 11.0391 6.74609 11.1914 6.18359 11.4961C5.63281 11.8008 5.18164 12.2168 4.83008 12.7441C4.47852 13.2715 4.2207 13.8809 4.05664 14.5723C3.89258 15.2637 3.81055 16.002 3.81055 16.7871ZM15.6055 15.6621L13.6191 16.1016C13.6191 14.9531 13.7773 13.8691 14.0938 12.8496C14.4219 11.8184 14.8965 10.916 15.5176 10.1426C16.1504 9.35742 16.9297 8.74219 17.8555 8.29688C18.7812 7.85156 19.8418 7.62891 21.0371 7.62891C22.0098 7.62891 22.877 7.76367 23.6387 8.0332C24.4121 8.29102 25.0684 8.70117 25.6074 9.26367C26.1465 9.82617 26.5566 10.5586 26.8379 11.4609C27.1191 12.3516 27.2598 13.4297 27.2598 14.6953V27H23.0059V14.6777C23.0059 13.7168 22.8652 12.9727 22.584 12.4453C22.3145 11.918 21.9277 11.5547 21.4238 11.3555C20.9199 11.1445 20.3164 11.0391 19.6133 11.0391C18.957 11.0391 18.377 11.1621 17.873 11.4082C17.3809 11.6426 16.9648 11.9766 16.625 12.4102C16.2852 12.832 16.0273 13.3184 15.8516 13.8691C15.6875 14.4199 15.6055 15.0176 15.6055 15.6621ZM34.7832 23.6602H35.1348C36.752 23.6602 38.0996 23.4492 39.1777 23.0273C40.2676 22.5938 41.1348 21.9961 41.7793 21.2344C42.4238 20.4727 42.8867 19.5762 43.168 18.5449C43.4492 17.5137 43.5898 16.3945 43.5898 15.1875V10.7754C43.5898 9.73242 43.4785 8.81836 43.2559 8.0332C43.0449 7.23633 42.7402 6.57422 42.3418 6.04688C41.9551 5.50781 41.5039 5.10352 40.9883 4.83398C40.4844 4.56445 39.9395 4.42969 39.3535 4.42969C38.709 4.42969 38.1289 4.57617 37.6133 4.86914C37.1094 5.15039 36.6816 5.54297 36.3301 6.04688C35.9902 6.53906 35.7266 7.11914 35.5391 7.78711C35.3633 8.44336 35.2754 9.14648 35.2754 9.89648C35.2754 10.5996 35.3574 11.2793 35.5215 11.9355C35.6973 12.5801 35.9551 13.1543 36.2949 13.6582C36.6348 14.1621 37.0625 14.5605 37.5781 14.8535C38.0938 15.1465 38.6973 15.293 39.3887 15.293C40.0449 15.293 40.6484 15.1699 41.1992 14.9238C41.75 14.666 42.2305 14.3203 42.6406 13.8867C43.0508 13.4531 43.373 12.9668 43.6074 12.4277C43.8418 11.8887 43.9707 11.3379 43.9941 10.7754L45.6113 11.2676C45.6113 12.1582 45.4238 13.0371 45.0488 13.9043C44.6855 14.7598 44.1758 15.5449 43.5195 16.2598C42.875 16.9629 42.1191 17.5254 41.252 17.9473C40.3965 18.3691 39.4648 18.5801 38.457 18.5801C37.2383 18.5801 36.1602 18.3516 35.2227 17.8945C34.2969 17.4258 33.5234 16.793 32.9023 15.9961C32.293 15.1992 31.8359 14.2852 31.5312 13.2539C31.2266 12.2227 31.0742 11.1387 31.0742 10.002C31.0742 8.77148 31.2617 7.61719 31.6367 6.53906C32.0117 5.46094 32.5566 4.51172 33.2715 3.69141C33.9863 2.85938 34.8535 2.21484 35.873 1.75781C36.9043 1.28906 38.0703 1.05469 39.3711 1.05469C40.7539 1.05469 41.9668 1.32422 43.0098 1.86328C44.0527 2.40234 44.9316 3.14648 45.6465 4.0957C46.3613 5.04492 46.9004 6.14648 47.2637 7.40039C47.627 8.6543 47.8086 10.002 47.8086 11.4434V12.9375C47.8086 14.4492 47.6738 15.9082 47.4043 17.3145C47.1348 18.709 46.6953 20.0039 46.0859 21.1992C45.4883 22.3828 44.6973 23.4258 43.7129 24.3281C42.7402 25.2188 41.5449 25.916 40.127 26.4199C38.7207 26.9121 37.0684 27.1582 35.1699 27.1582H34.7832V23.6602ZM56.6152 0V27H52.3613V0H56.6152ZM69.9746 7.98047V11.0742H59.252V7.98047H69.9746ZM62.3457 3.32227H66.582V21.7441C66.582 22.3301 66.6641 22.7812 66.8281 23.0977C67.0039 23.4023 67.2441 23.6074 67.5488 23.7129C67.8535 23.8184 68.2109 23.8711 68.6211 23.8711C68.9141 23.8711 69.1953 23.8535 69.4648 23.8184C69.7344 23.7832 69.9512 23.748 70.1152 23.7129L70.1328 26.9473C69.7812 27.0527 69.3711 27.1465 68.9023 27.2285C68.4453 27.3105 67.918 27.3516 67.3203 27.3516C66.3477 27.3516 65.4863 27.1816 64.7363 26.8418C63.9863 26.4902 63.4004 25.9219 62.9785 25.1367C62.5566 24.3516 62.3457 23.3086 62.3457 22.0078V3.32227ZM83.9668 23.1855V14.1152C83.9668 13.4355 83.8438 12.8496 83.5977 12.3574C83.3516 11.8652 82.9766 11.4844 82.4727 11.2148C81.9805 10.9453 81.3594 10.8105 80.6094 10.8105C79.918 10.8105 79.3203 10.9277 78.8164 11.1621C78.3125 11.3965 77.9199 11.7129 77.6387 12.1113C77.3574 12.5098 77.2168 12.9609 77.2168 13.4648H72.998C72.998 12.7148 73.1797 11.9883 73.543 11.2852C73.9062 10.582 74.4336 9.95508 75.125 9.4043C75.8164 8.85352 76.6426 8.41992 77.6035 8.10352C78.5645 7.78711 79.6426 7.62891 80.8379 7.62891C82.2676 7.62891 83.5332 7.86914 84.6348 8.34961C85.748 8.83008 86.6211 9.55664 87.2539 10.5293C87.8984 11.4902 88.2207 12.6973 88.2207 14.1504V22.6055C88.2207 23.4727 88.2793 24.252 88.3965 24.9434C88.5254 25.623 88.707 26.2148 88.9414 26.7188V27H84.5996C84.4004 26.543 84.2422 25.9629 84.125 25.2598C84.0195 24.5449 83.9668 23.8535 83.9668 23.1855ZM84.582 15.4336L84.6172 18.0527H81.5762C80.791 18.0527 80.0996 18.1289 79.502 18.2812C78.9043 18.4219 78.4062 18.6328 78.0078 18.9141C77.6094 19.1953 77.3105 19.5352 77.1113 19.9336C76.9121 20.332 76.8125 20.7832 76.8125 21.2871C76.8125 21.791 76.9297 22.2539 77.1641 22.6758C77.3984 23.0859 77.7383 23.4082 78.1836 23.6426C78.6406 23.877 79.1914 23.9941 79.8359 23.9941C80.7031 23.9941 81.459 23.8184 82.1035 23.4668C82.7598 23.1035 83.2754 22.6641 83.6504 22.1484C84.0254 21.6211 84.2246 21.123 84.248 20.6543L85.6191 22.5352C85.4785 23.0156 85.2383 23.5312 84.8984 24.082C84.5586 24.6328 84.1133 25.1602 83.5625 25.6641C83.0234 26.1562 82.373 26.5605 81.6113 26.877C80.8613 27.1934 79.9941 27.3516 79.0098 27.3516C77.7676 27.3516 76.6602 27.1055 75.6875 26.6133C74.7148 26.1094 73.9531 25.4355 73.4023 24.5918C72.8516 23.7363 72.5762 22.7695 72.5762 21.6914C72.5762 20.6836 72.7637 19.793 73.1387 19.0195C73.5254 18.2344 74.0879 17.5781 74.8262 17.0508C75.5762 16.5234 76.4902 16.125 77.5684 15.8555C78.6465 15.5742 79.877 15.4336 81.2598 15.4336H84.582ZM101.176 14.3789V17.7539H91.877V14.3789H101.176ZM116.328 22.5176V7.98047H120.582V27H116.574L116.328 22.5176ZM116.926 18.5625L118.35 18.5273C118.35 19.8047 118.209 20.9824 117.928 22.0605C117.646 23.127 117.213 24.0586 116.627 24.8555C116.041 25.6406 115.291 26.2559 114.377 26.7012C113.463 27.1348 112.367 27.3516 111.09 27.3516C110.164 27.3516 109.314 27.2168 108.541 26.9473C107.768 26.6777 107.1 26.2617 106.537 25.6992C105.986 25.1367 105.559 24.4043 105.254 23.502C104.949 22.5996 104.797 21.5215 104.797 20.2676V7.98047H109.033V20.3027C109.033 20.9941 109.115 21.5742 109.279 22.043C109.443 22.5 109.666 22.8691 109.947 23.1504C110.229 23.4316 110.557 23.6309 110.932 23.748C111.307 23.8652 111.705 23.9238 112.127 23.9238C113.334 23.9238 114.283 23.6895 114.975 23.2207C115.678 22.7402 116.176 22.0957 116.469 21.2871C116.773 20.4785 116.926 19.5703 116.926 18.5625ZM129.459 7.98047V27H125.205V7.98047H129.459ZM124.924 2.98828C124.924 2.34375 125.135 1.81055 125.557 1.38867C125.99 0.955078 126.588 0.738281 127.35 0.738281C128.1 0.738281 128.691 0.955078 129.125 1.38867C129.559 1.81055 129.775 2.34375 129.775 2.98828C129.775 3.62109 129.559 4.14844 129.125 4.57031C128.691 4.99219 128.1 5.20312 127.35 5.20312C126.588 5.20312 125.99 4.99219 125.557 4.57031C125.135 4.14844 124.924 3.62109 124.924 2.98828Z" fill="white"/>
<path d="M4.49609 11.8477H5.49609V11.8159L5.49408 11.7841L4.49609 11.8477ZM4.49609 27V28H5.49609V27H4.49609ZM0.259766 27H-0.740234V28H0.259766V27ZM0.259766 7.98047V6.98047H-0.740234V7.98047H0.259766ZM4.25 7.98047L5.24798 7.91696L5.18839 6.98047H4.25V7.98047ZM3.81055 16.7871L3.79835 17.787L4.81055 17.7994V16.7871H3.81055ZM2.36914 16.7695H1.36914V17.7574L2.35695 17.7695L2.36914 16.7695ZM4.30273 10.2305L5.09454 10.8413L5.09868 10.8358L4.30273 10.2305ZM6.6582 8.31445L7.08727 9.21774L7.09202 9.21545L6.6582 8.31445ZM12.3184 8.01562L11.9791 8.95632L11.9883 8.95963L11.9976 8.96277L12.3184 8.01562ZM14.1992 9.19336L13.4843 9.8927L13.4921 9.90047L14.1992 9.19336ZM15.4297 11.2676L14.4809 11.5838L14.485 11.5956L15.4297 11.2676ZM15.8691 27V28H16.8691V27H15.8691ZM11.6328 27H10.6328V28H11.6328V27ZM11.2109 12.5156L10.3205 12.9707L10.3245 12.9785L10.3286 12.9862L11.2109 12.5156ZM10.0332 11.3906L9.61147 12.2973L9.62404 12.3032L9.63677 12.3087L10.0332 11.3906ZM6.18359 11.4961L5.70729 10.6168L5.69953 10.6211L6.18359 11.4961ZM15.6055 15.6621L15.8215 16.6385L16.6055 16.4651V15.6621H15.6055ZM13.6191 16.1016H12.6191V17.347L13.8352 17.078L13.6191 16.1016ZM14.0938 12.8496L13.1408 12.5464L13.1387 12.5532L14.0938 12.8496ZM15.5176 10.1426L14.739 9.51505L14.7379 9.51644L15.5176 10.1426ZM23.6387 8.0332L23.3051 8.97593L23.3137 8.97899L23.3224 8.98189L23.6387 8.0332ZM26.8379 11.4609L25.8832 11.7585L25.8843 11.7621L26.8379 11.4609ZM27.2598 27V28H28.2598V27H27.2598ZM23.0059 27H22.0059V28H23.0059V27ZM22.584 12.4453L21.6935 12.9004L21.6975 12.9082L21.7016 12.9159L22.584 12.4453ZM21.4238 11.3555L21.0377 12.2779L21.0469 12.2818L21.0562 12.2854L21.4238 11.3555ZM17.873 11.4082L18.303 12.3111L18.3119 12.3068L17.873 11.4082ZM16.625 12.4102L17.4038 13.0375L17.4121 13.027L16.625 12.4102ZM15.8516 13.8691L14.8989 13.5651L14.8959 13.5744L14.8932 13.5837L15.8516 13.8691ZM3.49609 11.8477V27H5.49609V11.8477H3.49609ZM4.49609 26H0.259766V28H4.49609V26ZM1.25977 27V7.98047H-0.740234V27H1.25977ZM0.259766 8.98047H4.25V6.98047H0.259766V8.98047ZM3.25202 8.04398L3.49811 11.9112L5.49408 11.7841L5.24798 7.91696L3.25202 8.04398ZM3.82274 15.7872L2.38133 15.7696L2.35695 17.7695L3.79835 17.787L3.82274 15.7872ZM3.36914 16.7695C3.36914 15.5404 3.52274 14.424 3.82053 13.4136L1.90212 12.8481C1.54367 14.0643 1.36914 15.3736 1.36914 16.7695H3.36914ZM3.82053 13.4136C4.11784 12.4049 4.5459 11.5524 5.09452 10.8413L3.51095 9.61967C2.79394 10.5491 2.26107 11.6303 1.90212 12.8481L3.82053 13.4136ZM5.09868 10.8358C5.63548 10.13 6.29518 9.59397 7.08726 9.21773L6.22915 7.41118C5.14623 7.92556 4.23561 8.66683 3.50679 9.6251L5.09868 10.8358ZM7.09202 9.21545C7.88375 8.83425 8.82663 8.62891 9.94531 8.62891V6.62891C8.57962 6.62891 7.3311 6.88059 6.22439 7.41345L7.09202 9.21545ZM9.94531 8.62891C10.7129 8.62891 11.3872 8.74286 11.9791 8.95632L12.6576 7.07493C11.8198 6.77276 10.9121 6.62891 9.94531 6.62891V8.62891ZM11.9976 8.96277C12.5778 9.1593 13.069 9.46805 13.4844 9.89265L14.9141 8.49407C14.2747 7.84055 13.5121 7.36414 12.6392 7.06848L11.9976 8.96277ZM13.4921 9.90047C13.9045 10.3128 14.2407 10.8628 14.481 11.5838L16.3784 10.9514C16.0562 9.98482 15.5721 9.152 14.9063 8.48625L13.4921 9.90047ZM14.485 11.5956C14.7313 12.305 14.8691 13.2071 14.8691 14.3262H16.8691C16.8691 13.0546 16.714 11.9177 16.3744 10.9396L14.485 11.5956ZM14.8691 14.3262V27H16.8691V14.3262H14.8691ZM15.8691 26H11.6328V28H15.8691V26ZM12.6328 27V14.6953H10.6328V27H12.6328ZM12.6328 14.6953C12.6328 13.6872 12.4828 12.7754 12.0933 12.045L10.3286 12.9862C10.5016 13.3105 10.6328 13.8518 10.6328 14.6953H12.6328ZM12.1014 12.0605C11.7322 11.3383 11.171 10.7927 10.4296 10.4726L9.63677 12.3087C9.92667 12.4339 10.1506 12.6383 10.3205 12.9707L12.1014 12.0605ZM10.4549 10.4839C9.78875 10.1741 9.03406 10.0391 8.22266 10.0391V12.0391C8.8175 12.0391 9.26984 12.1384 9.61147 12.2973L10.4549 10.4839ZM8.22266 10.0391C7.29966 10.0391 6.44775 10.2157 5.70731 10.6168L6.65988 12.3754C7.04444 12.1671 7.55191 12.0391 8.22266 12.0391V10.0391ZM5.69953 10.6211C5.0078 11.0037 4.43766 11.53 3.99803 12.1894L5.66213 13.2988C5.92562 12.9036 6.25782 12.5978 6.66766 12.3711L5.69953 10.6211ZM3.99803 12.1894C3.57317 12.8267 3.27182 13.5484 3.08366 14.3414L5.02962 14.8031C5.16959 14.2133 5.38386 13.7162 5.66213 13.2988L3.99803 12.1894ZM3.08366 14.3414C2.89988 15.1159 2.81055 15.9322 2.81055 16.7871H4.81055C4.81055 16.0717 4.88527 15.4115 5.02962 14.8031L3.08366 14.3414ZM15.3895 14.6857L13.4031 15.1252L13.8352 17.078L15.8215 16.6385L15.3895 14.6857ZM14.6191 16.1016C14.6191 15.046 14.7644 14.0626 15.0488 13.146L13.1387 12.5532C12.7903 13.6757 12.6191 14.8602 12.6191 16.1016H14.6191ZM15.0467 13.1528C15.3409 12.2282 15.7601 11.4377 16.2973 10.7687L14.7379 9.51644C14.0329 10.3943 13.5029 11.4085 13.1408 12.5464L15.0467 13.1528ZM16.2962 10.7701C16.8339 10.1029 17.4945 9.58017 18.2889 9.19804L17.422 7.39571C16.3649 7.9042 15.4669 8.61195 14.739 9.51505L16.2962 10.7701ZM18.2889 9.19804C19.059 8.82761 19.9674 8.62891 21.0371 8.62891V6.62891C19.7162 6.62891 18.5035 6.87551 17.422 7.39571L18.2889 9.19804ZM21.0371 8.62891C21.9186 8.62891 22.6698 8.75114 23.3051 8.97593L23.9723 7.09048C23.0841 6.77621 22.1009 6.62891 21.0371 6.62891V8.62891ZM23.3224 8.98189C23.9492 9.1908 24.464 9.51586 24.8854 9.95558L26.3294 8.57177C25.6727 7.88649 24.875 7.39123 23.9549 7.08452L23.3224 8.98189ZM24.8854 9.95558C25.297 10.3851 25.6383 10.9728 25.8832 11.7585L27.7926 11.1634C27.475 10.1444 26.9959 9.26726 26.3294 8.57177L24.8854 9.95558ZM25.8843 11.7621C26.1261 12.5276 26.2598 13.4981 26.2598 14.6953H28.2598C28.2598 13.3612 28.1122 12.1755 27.7915 11.1598L25.8843 11.7621ZM26.2598 14.6953V27H28.2598V14.6953H26.2598ZM27.2598 26H23.0059V28H27.2598V26ZM24.0059 27V14.6777H22.0059V27H24.0059ZM24.0059 14.6777C24.0059 13.6419 23.8581 12.7092 23.4663 11.9747L21.7016 12.9159C21.8724 13.2361 22.0059 13.7917 22.0059 14.6777H24.0059ZM23.4744 11.9902C23.1053 11.268 22.5433 10.7227 21.7915 10.4255L21.0562 12.2854C21.3121 12.3866 21.5236 12.5679 21.6935 12.9004L23.4744 11.9902ZM21.81 10.433C21.1541 10.1585 20.4126 10.0391 19.6133 10.0391V12.0391C20.2203 12.0391 20.6857 12.1306 21.0377 12.2779L21.81 10.433ZM19.6133 10.0391C18.8307 10.0391 18.0962 10.1863 17.4342 10.5096L18.3119 12.3068C18.6577 12.1379 19.0833 12.0391 19.6133 12.0391V10.0391ZM17.4431 10.5053C16.8099 10.8069 16.2721 11.2394 15.8379 11.7933L17.4121 13.027C17.6576 12.7138 17.9519 12.4783 18.303 12.3111L17.4431 10.5053ZM15.8462 11.7828C15.4239 12.3071 15.1097 12.9047 14.8989 13.5651L16.8042 14.1732C16.945 13.732 17.1464 13.3569 17.4038 13.0375L15.8462 11.7828ZM14.8932 13.5837C14.6984 14.2376 14.6055 14.9325 14.6055 15.6621H16.6055C16.6055 15.1027 16.6766 14.6023 16.8099 14.1546L14.8932 13.5837ZM34.7832 23.6602V22.6602H33.7832V23.6602H34.7832ZM39.1777 23.0273L39.5421 23.9586L39.5474 23.9565L39.1777 23.0273ZM43.2559 8.0332L42.2892 8.2891L42.2914 8.29758L42.2938 8.30603L43.2559 8.0332ZM42.3418 6.04688L41.5293 6.62978L41.5365 6.63984L41.5439 6.64971L42.3418 6.04688ZM40.9883 4.83398L40.5166 5.71581L40.525 5.72021L40.9883 4.83398ZM37.6133 4.86914L38.1007 5.74236L38.1073 5.7386L37.6133 4.86914ZM36.3301 6.04688L35.5099 5.47469L35.5072 5.47868L36.3301 6.04688ZM35.5391 7.78711L34.5762 7.51683L34.5731 7.52837L35.5391 7.78711ZM35.5215 11.9355L34.5513 12.1781L34.5539 12.1884L34.5567 12.1987L35.5215 11.9355ZM41.1992 14.9238L41.6072 15.8368L41.6152 15.8332L41.6232 15.8295L41.1992 14.9238ZM43.9941 10.7754L44.2853 9.81872L43.0488 9.44239L42.995 10.7338L43.9941 10.7754ZM45.6113 11.2676H46.6113V10.5266L45.9025 10.3109L45.6113 11.2676ZM45.0488 13.9043L44.131 13.5074L44.1284 13.5134L45.0488 13.9043ZM43.5195 16.2598L42.7829 15.5835L42.7824 15.584L43.5195 16.2598ZM41.252 17.9473L40.8145 17.048L40.8097 17.0504L41.252 17.9473ZM35.2227 17.8945L34.7709 18.7867L34.7777 18.7901L34.7845 18.7934L35.2227 17.8945ZM32.9023 15.9961L32.108 16.6036L32.1136 16.6108L32.9023 15.9961ZM33.2715 3.69141L34.0254 4.3484L34.03 4.34308L33.2715 3.69141ZM35.873 1.75781L36.2821 2.67033L36.2868 2.66818L35.873 1.75781ZM47.4043 17.3145L48.3861 17.5042L48.3864 17.5027L47.4043 17.3145ZM46.0859 21.1992L45.195 20.745L45.1933 20.7485L46.0859 21.1992ZM43.7129 24.3281L44.3882 25.0656L44.3886 25.0653L43.7129 24.3281ZM40.127 26.4199L40.4573 27.3638L40.4618 27.3622L40.127 26.4199ZM34.7832 27.1582H33.7832V28.1582H34.7832V27.1582ZM34.7832 24.6602H35.1348V22.6602H34.7832V24.6602ZM35.1348 24.6602C36.8308 24.6602 38.3117 24.4401 39.5421 23.9586L38.8133 22.0961C37.8875 22.4584 36.6731 22.6602 35.1348 22.6602V24.6602ZM39.5474 23.9565C40.763 23.4729 41.775 22.7876 42.5427 21.8803L41.0159 20.5884C40.4946 21.2046 39.7722 21.7146 38.8081 22.0982L39.5474 23.9565ZM42.5427 21.8803C43.2881 20.9994 43.8159 19.9698 44.1327 18.808L42.2032 18.2818C41.9576 19.1825 41.5596 19.9459 41.0159 20.5884L42.5427 21.8803ZM44.1327 18.808C44.4402 17.6808 44.5898 16.4721 44.5898 15.1875H42.5898C42.5898 16.3169 42.4583 17.3465 42.2032 18.2818L44.1327 18.808ZM44.5898 15.1875V10.7754H42.5898V15.1875H44.5898ZM44.5898 10.7754C44.5898 9.6644 44.4716 8.65492 44.2179 7.76038L42.2938 8.30603C42.4854 8.9818 42.5898 9.80045 42.5898 10.7754H44.5898ZM44.2226 7.77731C43.9863 6.88489 43.6331 6.09713 43.1397 5.44404L41.5439 6.64971C41.8474 7.05131 42.1035 7.58777 42.2892 8.2891L44.2226 7.77731ZM43.1543 5.46397C42.6893 4.81581 42.124 4.29927 41.4515 3.94776L40.525 5.72021C40.8838 5.90776 41.2208 6.19982 41.5293 6.62978L43.1543 5.46397ZM41.4599 3.9522C40.8072 3.60304 40.0997 3.42969 39.3535 3.42969V5.42969C39.7792 5.42969 40.1616 5.52587 40.5166 5.71577L41.4599 3.9522ZM39.3535 3.42969C38.5513 3.42969 37.7984 3.61382 37.1193 3.99968L38.1073 5.7386C38.4594 5.53852 38.8667 5.42969 39.3535 5.42969V3.42969ZM37.1259 3.99594C36.4812 4.35577 35.9425 4.85476 35.51 5.47469L37.1502 6.61906C37.4208 6.23118 37.7375 5.94502 38.1006 5.74234L37.1259 3.99594ZM35.5072 5.47868C35.0954 6.07501 34.7889 6.7592 34.5763 7.51685L36.5019 8.05737C36.6642 7.47908 36.885 7.00312 37.153 6.61507L35.5072 5.47868ZM34.5731 7.52837C34.3725 8.27725 34.2754 9.06808 34.2754 9.89648H36.2754C36.2754 9.22489 36.354 8.60947 36.505 8.04585L34.5731 7.52837ZM34.2754 9.89648C34.2754 10.6781 34.3667 11.4394 34.5513 12.1781L36.4916 11.693C36.3482 11.1192 36.2754 10.5211 36.2754 9.89648H34.2754ZM34.5567 12.1987C34.7584 12.9382 35.0592 13.6143 35.4658 14.2173L37.124 13.0991C36.851 12.6943 36.6361 12.2219 36.4862 11.6724L34.5567 12.1987ZM35.4658 14.2173C35.8897 14.8459 36.431 15.3519 37.0841 15.723L38.0721 13.9841C37.694 13.7692 37.3798 13.4784 37.124 13.0991L35.4658 14.2173ZM37.0841 15.723C37.7737 16.1148 38.553 16.293 39.3887 16.293V14.293C38.8415 14.293 38.4138 14.1782 38.0721 13.9841L37.0841 15.723ZM39.3887 16.293C40.173 16.293 40.9171 16.1452 41.6072 15.8368L40.7913 14.0108C40.3798 14.1947 39.9168 14.293 39.3887 14.293V16.293ZM41.6232 15.8295C42.2854 15.5195 42.869 15.1004 43.3671 14.5739L41.9142 13.1995C41.5919 13.5402 41.2146 13.8125 40.7753 14.0181L41.6232 15.8295ZM43.3671 14.5739C43.8558 14.0573 44.2431 13.4737 44.5245 12.8265L42.6904 12.029C42.503 12.4599 42.2458 12.849 41.9142 13.1995L43.3671 14.5739ZM44.5245 12.8265C44.8058 12.1795 44.9645 11.508 44.9933 10.817L42.995 10.7338C42.9769 11.1678 42.8778 11.5979 42.6904 12.029L44.5245 12.8265ZM43.703 11.7321L45.3202 12.2243L45.9025 10.3109L44.2853 9.81872L43.703 11.7321ZM44.6113 11.2676C44.6113 12.0135 44.4551 12.7578 44.131 13.5074L45.9667 14.3012C46.3925 13.3165 46.6113 12.3029 46.6113 11.2676H44.6113ZM44.1284 13.5134C43.8116 14.2594 43.3655 14.9489 42.7829 15.5835L44.2562 16.936C44.9861 16.141 45.5595 15.2601 45.9693 14.2952L44.1284 13.5134ZM42.7824 15.584C42.2238 16.1934 41.5699 16.6805 40.8145 17.048L41.6894 18.8465C42.6684 18.3702 43.5262 17.7323 44.2567 16.9355L42.7824 15.584ZM40.8097 17.0504C40.0995 17.4006 39.3204 17.5801 38.457 17.5801V19.5801C39.6093 19.5801 40.6934 19.3377 41.6942 18.8441L40.8097 17.0504ZM38.457 17.5801C37.3646 17.5801 36.4407 17.3758 35.6609 16.9957L34.7845 18.7934C35.8796 19.3273 37.1119 19.5801 38.457 19.5801V17.5801ZM35.6744 17.0024C34.8763 16.5983 34.2191 16.0589 33.6911 15.3814L32.1136 16.6108C32.8277 17.5271 33.7174 18.2533 34.7709 18.7867L35.6744 17.0024ZM33.6967 15.3886C33.1667 14.6956 32.7628 13.8931 32.4903 12.9706L30.5722 13.5373C30.909 14.6772 31.4192 15.7028 32.108 16.6035L33.6967 15.3886ZM32.4903 12.9706C32.2143 12.0364 32.0742 11.0482 32.0742 10.002H30.0742C30.0742 11.2291 30.2389 12.4089 30.5722 13.5373L32.4903 12.9706ZM32.0742 10.002C32.0742 8.87459 32.2457 7.83213 32.5812 6.86758L30.6922 6.21054C30.2777 7.40224 30.0742 8.66838 30.0742 10.002H32.0742ZM32.5812 6.86758C32.9163 5.9041 33.3986 5.0677 34.0254 4.34838L32.5176 3.03443C31.7147 3.95573 31.1071 5.01778 30.6922 6.21054L32.5812 6.86758ZM34.03 4.34308C34.6471 3.62476 35.3943 3.06832 36.2821 2.67032L35.464 0.845303C34.3128 1.36136 33.3255 2.09399 32.513 3.03974L34.03 4.34308ZM36.2868 2.66818C37.1702 2.26665 38.192 2.05469 39.3711 2.05469V0.0546875C37.9487 0.0546875 36.6384 0.311476 35.4592 0.847446L36.2868 2.66818ZM39.3711 2.05469C40.6225 2.05469 41.6728 2.29793 42.5506 2.75164L43.4689 0.974923C42.2608 0.350506 40.8853 0.0546875 39.3711 0.0546875V2.05469ZM42.5506 2.75164C43.4586 3.22094 44.222 3.86642 44.8477 4.69728L46.4453 3.49413C45.6413 2.42655 44.6469 1.58374 43.4689 0.974923L42.5506 2.75164ZM44.8477 4.69728C45.4825 5.54032 45.9704 6.52995 46.3032 7.67867L48.2242 7.12211C47.8304 5.76302 47.2401 4.54953 46.4453 3.49413L44.8477 4.69728ZM46.3032 7.67867C46.6377 8.83328 46.8086 10.0864 46.8086 11.4434H48.8086C48.8086 9.91749 48.6162 8.47532 48.2242 7.12211L46.3032 7.67867ZM46.8086 11.4434V12.9375H48.8086V11.4434H46.8086ZM46.8086 12.9375C46.8086 14.3895 46.6792 15.7853 46.4222 17.1262L48.3864 17.5027C48.6685 16.0311 48.8086 14.5089 48.8086 12.9375H46.8086ZM46.4225 17.1247C46.1697 18.4326 45.7594 19.6379 45.195 20.745L46.9768 21.6534C47.6312 20.3699 48.0999 18.9853 48.3861 17.5042L46.4225 17.1247ZM45.1933 20.7485C44.6504 21.8235 43.9332 22.7696 43.0372 23.591L44.3886 25.0653C45.4613 24.0819 46.3261 22.9421 46.9786 21.65L45.1933 20.7485ZM43.0376 23.5906C42.1765 24.379 41.1017 25.0123 39.7921 25.4777L40.4618 27.3622C41.9881 26.8198 43.3039 26.0585 44.3882 25.0656L43.0376 23.5906ZM39.7966 25.4761C38.5211 25.9225 36.9852 26.1582 35.1699 26.1582V28.1582C37.1515 28.1582 38.9203 27.9017 40.4573 27.3638L39.7966 25.4761ZM35.1699 26.1582H34.7832V28.1582H35.1699V26.1582ZM35.7832 27.1582V23.6602H33.7832V27.1582H35.7832ZM56.6152 0H57.6152V-1H56.6152V0ZM56.6152 27V28H57.6152V27H56.6152ZM52.3613 27H51.3613V28H52.3613V27ZM52.3613 0V-1H51.3613V0H52.3613ZM55.6152 0V27H57.6152V0H55.6152ZM56.6152 26H52.3613V28H56.6152V26ZM53.3613 27V0H51.3613V27H53.3613ZM52.3613 1H56.6152V-1H52.3613V1ZM69.9746 7.98047H70.9746V6.98047H69.9746V7.98047ZM69.9746 11.0742V12.0742H70.9746V11.0742H69.9746ZM59.252 11.0742H58.252V12.0742H59.252V11.0742ZM59.252 7.98047V6.98047H58.252V7.98047H59.252ZM62.3457 3.32227V2.32227H61.3457V3.32227H62.3457ZM66.582 3.32227H67.582V2.32227H66.582V3.32227ZM66.8281 23.0977L65.9404 23.558L65.9507 23.5779L65.9619 23.5974L66.8281 23.0977ZM70.1152 23.7129L71.1152 23.7075L71.1085 22.4773L69.9057 22.7351L70.1152 23.7129ZM70.1328 26.9473L70.4202 27.9051L71.1369 27.6901L71.1328 26.9418L70.1328 26.9473ZM68.9023 27.2285L68.73 26.2435L68.7257 26.2442L68.9023 27.2285ZM64.7363 26.8418L64.3119 27.7473L64.3236 27.7527L64.7363 26.8418ZM68.9746 7.98047V11.0742H70.9746V7.98047H68.9746ZM69.9746 10.0742H59.252V12.0742H69.9746V10.0742ZM60.252 11.0742V7.98047H58.252V11.0742H60.252ZM59.252 8.98047H69.9746V6.98047H59.252V8.98047ZM62.3457 4.32227H66.582V2.32227H62.3457V4.32227ZM65.582 3.32227V21.7441H67.582V3.32227H65.582ZM65.582 21.7441C65.582 22.399 65.6697 23.0359 65.9404 23.558L67.7159 22.6373C67.6585 22.5266 67.582 22.2611 67.582 21.7441H65.582ZM65.9619 23.5974C66.2462 24.0901 66.6683 24.4663 67.2217 24.6579L67.8759 22.7679C67.82 22.7485 67.7616 22.7146 67.6943 22.5979L65.9619 23.5974ZM67.2217 24.6579C67.6558 24.8081 68.1285 24.8711 68.6211 24.8711V22.8711C68.2934 22.8711 68.0512 22.8286 67.8759 22.7679L67.2217 24.6579ZM68.6211 24.8711C68.954 24.8711 69.2786 24.8511 69.5942 24.81L69.3355 22.8268C69.112 22.8559 68.8741 22.8711 68.6211 22.8711V24.8711ZM69.5942 24.81C69.8764 24.7732 70.1231 24.7339 70.3248 24.6907L69.9057 22.7351C69.7793 22.7622 69.5924 22.7933 69.3355 22.8268L69.5942 24.81ZM69.1152 23.7183L69.1328 26.9527L71.1328 26.9418L71.1152 23.7075L69.1152 23.7183ZM69.8455 25.9894C69.5408 26.0808 69.1706 26.1664 68.73 26.2435L69.0747 28.2135C69.5716 28.1266 70.0217 28.0246 70.4202 27.9051L69.8455 25.9894ZM68.7257 26.2442C68.3408 26.3133 67.8746 26.3516 67.3203 26.3516V28.3516C67.9613 28.3516 68.5499 28.3078 69.079 28.2128L68.7257 26.2442ZM67.3203 26.3516C66.4645 26.3516 65.748 26.2023 65.1491 25.9309L64.3236 27.7527C65.2246 28.1609 66.2308 28.3516 67.3203 28.3516V26.3516ZM65.1608 25.9363C64.6206 25.6831 64.1877 25.2745 63.8594 24.6634L62.0976 25.61C62.613 26.5693 63.3521 27.2974 64.3119 27.7473L65.1608 25.9363ZM63.8594 24.6634C63.5434 24.0753 63.3457 23.214 63.3457 22.0078H61.3457C61.3457 23.4032 61.5699 24.6278 62.0976 25.61L63.8594 24.6634ZM63.3457 22.0078V3.32227H61.3457V22.0078H63.3457ZM82.4727 11.2148L81.9923 12.092L82.001 12.0966L82.4727 11.2148ZM77.2168 13.4648V14.4648H78.2168V13.4648H77.2168ZM72.998 13.4648H71.998V14.4648H72.998V13.4648ZM84.6348 8.34961L84.235 9.26622L84.2385 9.26775L84.6348 8.34961ZM87.2539 10.5293L86.4156 11.0747L86.4234 11.0863L87.2539 10.5293ZM88.3965 24.9434L87.4105 25.1105L87.4122 25.1201L87.414 25.1297L88.3965 24.9434ZM88.9414 26.7188H89.9414V26.4976L89.8481 26.297L88.9414 26.7188ZM88.9414 27V28H89.9414V27H88.9414ZM84.5996 27L83.6829 27.3996L83.9446 28H84.5996V27ZM84.125 25.2598L83.1357 25.4057L83.1371 25.415L83.1386 25.4242L84.125 25.2598ZM84.582 15.4336L85.5819 15.4202L85.5687 14.4336H84.582V15.4336ZM84.6172 18.0527V19.0527H85.6307L85.6171 18.0393L84.6172 18.0527ZM79.502 18.2812L79.731 19.2547L79.74 19.2525L79.749 19.2503L79.502 18.2812ZM77.1641 22.6758L76.2898 23.1615L76.2958 23.1719L77.1641 22.6758ZM78.1836 23.6426L77.7178 24.5275L77.7273 24.5324L78.1836 23.6426ZM82.1035 23.4668L82.5824 24.3447L82.5878 24.3417L82.1035 23.4668ZM83.6504 22.1484L84.4592 22.7366L84.4653 22.728L83.6504 22.1484ZM84.248 20.6543L85.0561 20.0652L83.3905 17.7803L83.2493 20.6044L84.248 20.6543ZM85.6191 22.5352L86.5789 22.8161L86.7171 22.3438L86.4272 21.9461L85.6191 22.5352ZM83.5625 25.6641L84.2368 26.4025L84.2375 26.4019L83.5625 25.6641ZM81.6113 26.877L81.2277 25.9534L81.2226 25.9556L81.6113 26.877ZM75.6875 26.6133L75.2275 27.5012L75.236 27.5055L75.6875 26.6133ZM73.4023 24.5918L72.5615 25.1331L72.565 25.1384L73.4023 24.5918ZM73.1387 19.0195L72.2416 18.5777L72.2389 18.5833L73.1387 19.0195ZM74.8262 17.0508L74.251 16.2327L74.2449 16.237L74.8262 17.0508ZM77.5684 15.8555L77.8109 16.8257L77.8208 16.8231L77.5684 15.8555ZM84.9668 23.1855V14.1152H82.9668V23.1855H84.9668ZM84.9668 14.1152C84.9668 13.3161 84.822 12.5701 84.4921 11.9102L82.7032 12.8046C82.8655 13.1291 82.9668 13.555 82.9668 14.1152H84.9668ZM84.4921 11.9102C84.1497 11.2255 83.6232 10.6962 82.9443 10.3331L82.001 12.0966C82.3299 12.2725 82.5534 12.505 82.7032 12.8046L84.4921 11.9102ZM82.953 10.3377C82.2723 9.96499 81.4729 9.81055 80.6094 9.81055V11.8105C81.2458 11.8105 81.6887 11.9256 81.9923 12.0919L82.953 10.3377ZM80.6094 9.81055C79.8069 9.81055 79.0588 9.94647 78.3947 10.2554L79.2381 12.0688C79.5818 11.909 80.029 11.8105 80.6094 11.8105V9.81055ZM78.3947 10.2554C77.7549 10.553 77.217 10.9746 76.8217 11.5346L78.4556 12.688C78.6228 12.4511 78.8701 12.24 79.2381 12.0688L78.3947 10.2554ZM76.8217 11.5346C76.4172 12.1077 76.2168 12.7617 76.2168 13.4648H78.2168C78.2168 13.1601 78.2976 12.9119 78.4556 12.688L76.8217 11.5346ZM77.2168 12.4648H72.998V14.4648H77.2168V12.4648ZM73.998 13.4648C73.998 12.8834 74.1373 12.3135 74.4314 11.7442L72.6545 10.8261C72.2221 11.6631 71.998 12.5463 71.998 13.4648H73.998ZM74.4314 11.7442C74.7228 11.1802 75.154 10.6597 75.7481 10.1865L74.5019 8.62214C73.7132 9.25042 73.0897 9.98389 72.6545 10.8261L74.4314 11.7442ZM75.7481 10.1865C76.3344 9.71936 77.0518 9.33798 77.9163 9.05335L77.2908 7.15368C76.2333 7.50186 75.2984 7.98767 74.5019 8.62214L75.7481 10.1865ZM77.9163 9.05335C78.7599 8.77558 79.7301 8.62891 80.8379 8.62891V6.62891C79.5551 6.62891 78.369 6.79864 77.2908 7.15368L77.9163 9.05335ZM80.8379 8.62891C82.1557 8.62891 83.2811 8.85016 84.235 9.26621L85.0346 7.43301C83.7853 6.88812 82.3795 6.62891 80.8379 6.62891V8.62891ZM84.2385 9.26775C85.1796 9.67389 85.8953 10.2747 86.4157 11.0746L88.0921 9.98395C87.3469 8.83856 86.3165 7.98627 85.031 7.43147L84.2385 9.26775ZM86.4234 11.0863C86.9322 11.8449 87.2207 12.8448 87.2207 14.1504H89.2207C89.2207 12.5497 88.8647 11.1356 88.0844 9.97226L86.4234 11.0863ZM87.2207 14.1504V22.6055H89.2207V14.1504H87.2207ZM87.2207 22.6055C87.2207 23.5161 87.2821 24.3527 87.4105 25.1105L89.3824 24.7763C89.2765 24.1512 89.2207 23.4292 89.2207 22.6055H87.2207ZM87.414 25.1297C87.5547 25.8718 87.7581 26.5459 88.0347 27.1405L89.8481 26.297C89.6559 25.8838 89.496 25.3743 89.379 24.757L87.414 25.1297ZM87.9414 26.7188V27H89.9414V26.7188H87.9414ZM88.9414 26H84.5996V28H88.9414V26ZM85.5163 26.6004C85.3606 26.2432 85.2203 25.7491 85.1114 25.0954L83.1386 25.4242C83.264 26.1767 83.4402 26.8428 83.6829 27.3996L85.5163 26.6004ZM85.1143 25.1138C85.0154 24.4434 84.9668 23.8009 84.9668 23.1855H82.9668C82.9668 23.9061 83.0237 24.6464 83.1357 25.4057L85.1143 25.1138ZM83.5821 15.447L83.6173 18.0662L85.6171 18.0393L85.5819 15.4202L83.5821 15.447ZM84.6172 17.0527H81.5762V19.0527H84.6172V17.0527ZM81.5762 17.0527C80.7292 17.0527 79.9518 17.1346 79.2549 17.3122L79.749 19.2503C80.2475 19.1232 80.8529 19.0527 81.5762 19.0527V17.0527ZM79.2729 17.3078C78.5815 17.4705 77.9576 17.7255 77.4311 18.0971L78.5845 19.731C78.8549 19.5402 79.2271 19.3732 79.731 19.2547L79.2729 17.3078ZM77.4311 18.0971C76.911 18.4643 76.4967 18.9267 76.2169 19.4864L78.0058 20.3808C78.1243 20.1436 78.3078 19.9264 78.5845 19.731L77.4311 18.0971ZM76.2169 19.4864C75.9396 20.0409 75.8125 20.6485 75.8125 21.2871H77.8125C77.8125 20.9179 77.8846 20.6231 78.0058 20.3808L76.2169 19.4864ZM75.8125 21.2871C75.8125 21.9532 75.9693 22.5843 76.2899 23.1614L78.0382 22.1901C77.8901 21.9235 77.8125 21.6289 77.8125 21.2871H75.8125ZM76.2958 23.1719C76.6309 23.7583 77.1156 24.2105 77.7178 24.5275L78.6493 22.7577C78.361 22.6059 78.166 22.4136 78.0323 22.1796L76.2958 23.1719ZM77.7273 24.5324C78.3569 24.8553 79.0722 24.9941 79.8359 24.9941V22.9941C79.3106 22.9941 78.9243 22.8986 78.6399 22.7528L77.7273 24.5324ZM79.8359 24.9941C80.8401 24.9941 81.7664 24.7897 82.5824 24.3447L81.6247 22.5889C81.1515 22.847 80.5662 22.9941 79.8359 22.9941V24.9941ZM82.5878 24.3417C83.3495 23.92 83.9844 23.3894 84.4591 22.7366L82.8417 21.5603C82.5664 21.9387 82.17 22.287 81.6192 22.5919L82.5878 24.3417ZM84.4653 22.728C84.9105 22.102 85.2109 21.4227 85.2468 20.7042L83.2493 20.6044C83.2383 20.8234 83.1403 21.1402 82.8354 21.5689L84.4653 22.728ZM83.44 21.2434L84.8111 23.1242L86.4272 21.9461L85.0561 20.0652L83.44 21.2434ZM84.6594 22.2543C84.55 22.628 84.3532 23.0613 84.0474 23.5569L85.7495 24.6071C86.1234 24.0012 86.407 23.4032 86.5789 22.8161L84.6594 22.2543ZM84.0474 23.5569C83.7629 24.018 83.3803 24.4754 82.8875 24.9263L84.2375 26.4019C84.8463 25.8449 85.3543 25.2476 85.7495 24.6071L84.0474 23.5569ZM82.8882 24.9256C82.445 25.3303 81.8963 25.6757 81.2277 25.9535L81.9949 27.8004C82.8498 27.4454 83.6019 26.9822 84.2368 26.4025L82.8882 24.9256ZM81.2226 25.9556C80.6185 26.2104 79.8879 26.3516 79.0098 26.3516V28.3516C80.1004 28.3516 81.1041 28.1763 82 27.7983L81.2226 25.9556ZM79.0098 26.3516C77.9024 26.3516 76.9533 26.1331 76.139 25.721L75.236 27.5055C76.367 28.0779 77.6327 28.3516 79.0098 28.3516V26.3516ZM76.1475 25.7254C75.3142 25.2937 74.6881 24.7321 74.2397 24.0452L72.565 25.1384C73.2181 26.139 74.1155 26.9251 75.2275 27.5012L76.1475 25.7254ZM74.2431 24.0505C73.8026 23.3662 73.5762 22.5896 73.5762 21.6914H71.5762C71.5762 22.9495 71.9005 24.1064 72.5615 25.1331L74.2431 24.0505ZM73.5762 21.6914C73.5762 20.8088 73.7399 20.0717 74.0385 19.4558L72.2389 18.5833C71.7875 19.5142 71.5762 20.5584 71.5762 21.6914H73.5762ZM74.0358 19.4614C74.3468 18.8299 74.7984 18.2995 75.4074 17.8645L74.2449 16.237C73.3774 16.8567 72.704 17.6389 72.2416 18.5777L74.0358 19.4614ZM75.4013 17.8688C76.0319 17.4254 76.8275 17.0715 77.8109 16.8256L77.3258 14.8853C76.153 15.1785 75.1204 15.6214 74.251 16.2328L75.4013 17.8688ZM77.8208 16.8231C78.7995 16.5678 79.9426 16.4336 81.2598 16.4336V14.4336C79.8113 14.4336 78.4935 14.5807 77.3159 14.8879L77.8208 16.8231ZM81.2598 16.4336H84.582V14.4336H81.2598V16.4336ZM101.176 14.3789H102.176V13.3789H101.176V14.3789ZM101.176 17.7539V18.7539H102.176V17.7539H101.176ZM91.877 17.7539H90.877V18.7539H91.877V17.7539ZM91.877 14.3789V13.3789H90.877V14.3789H91.877ZM100.176 14.3789V17.7539H102.176V14.3789H100.176ZM101.176 16.7539H91.877V18.7539H101.176V16.7539ZM92.877 17.7539V14.3789H90.877V17.7539H92.877ZM91.877 15.3789H101.176V13.3789H91.877V15.3789ZM116.328 22.5176H115.328V22.545L115.33 22.5724L116.328 22.5176ZM116.328 7.98047V6.98047H115.328V7.98047H116.328ZM120.582 7.98047H121.582V6.98047H120.582V7.98047ZM120.582 27V28H121.582V27H120.582ZM116.574 27L115.576 27.0548L115.628 28H116.574V27ZM116.926 18.5625L116.901 17.5628L115.926 17.5869V18.5625H116.926ZM118.35 18.5273H119.35V17.5023L118.325 17.5276L118.35 18.5273ZM117.928 22.0605L118.895 22.3156L118.895 22.313L117.928 22.0605ZM116.627 24.8555L117.428 25.4536L117.433 25.4479L116.627 24.8555ZM114.377 26.7012L114.806 27.6047L114.815 27.6002L114.377 26.7012ZM106.537 25.6992L105.823 26.3989L105.83 26.4063L106.537 25.6992ZM104.797 7.98047V6.98047H103.797V7.98047H104.797ZM109.033 7.98047H110.033V6.98047H109.033V7.98047ZM109.279 22.043L108.335 22.3733L108.338 22.3808L109.279 22.043ZM114.975 23.2207L115.536 24.0484L115.539 24.0463L114.975 23.2207ZM116.469 21.2871L115.533 20.9345L115.529 20.9465L116.469 21.2871ZM117.328 22.5176V7.98047H115.328V22.5176H117.328ZM116.328 8.98047H120.582V6.98047H116.328V8.98047ZM119.582 7.98047V27H121.582V7.98047H119.582ZM120.582 26H116.574V28H120.582V26ZM117.573 26.9452L117.327 22.4628L115.33 22.5724L115.576 27.0548L117.573 26.9452ZM116.95 19.5622L118.374 19.527L118.325 17.5276L116.901 17.5628L116.95 19.5622ZM117.35 18.5273C117.35 19.7317 117.217 20.8234 116.96 21.8081L118.895 22.313C119.201 21.1414 119.35 19.8777 119.35 18.5273H117.35ZM116.961 21.8055C116.708 22.7643 116.325 23.5785 115.821 24.2631L117.433 25.4479C118.101 24.5387 118.585 23.4896 118.895 22.3156L116.961 21.8055ZM115.826 24.2574C115.339 24.9098 114.715 25.424 113.939 25.8022L114.815 27.6002C115.867 27.0877 116.743 26.3715 117.428 25.4536L115.826 24.2574ZM113.948 25.7977C113.199 26.1533 112.257 26.3516 111.09 26.3516V28.3516C112.478 28.3516 113.727 28.1162 114.806 27.6047L113.948 25.7977ZM111.09 26.3516C110.262 26.3516 109.525 26.2312 108.87 26.003L108.212 27.8916C109.104 28.2024 110.066 28.3516 111.09 28.3516V26.3516ZM108.87 26.003C108.235 25.7815 107.697 25.4449 107.244 24.9921L105.83 26.4063C106.502 27.0786 107.301 27.574 108.212 27.8916L108.87 26.003ZM107.252 24.9996C106.826 24.5647 106.468 23.9713 106.201 23.182L104.306 23.8219C104.649 24.8373 105.147 25.7087 105.823 26.3988L107.252 24.9996ZM106.201 23.182C105.941 22.4095 105.797 21.4451 105.797 20.2676H103.797C103.797 21.5979 103.958 22.7897 104.306 23.8219L106.201 23.182ZM105.797 20.2676V7.98047H103.797V20.2676H105.797ZM104.797 8.98047H109.033V6.98047H104.797V8.98047ZM108.033 7.98047V20.3027H110.033V7.98047H108.033ZM108.033 20.3027C108.033 21.0659 108.123 21.7658 108.335 22.3733L110.223 21.7126C110.108 21.3827 110.033 20.9224 110.033 20.3027H108.033ZM108.338 22.3808C108.541 22.9466 108.834 23.4515 109.24 23.8575L110.654 22.4433C110.498 22.2868 110.346 22.0534 110.22 21.7051L108.338 22.3808ZM109.24 23.8575C109.634 24.2516 110.102 24.5365 110.633 24.7025L111.23 22.7936C111.011 22.7252 110.823 22.6117 110.654 22.4433L109.24 23.8575ZM110.633 24.7025C111.112 24.852 111.611 24.9238 112.127 24.9238V22.9238C111.799 22.9238 111.501 22.8784 111.23 22.7936L110.633 24.7025ZM112.127 24.9238C113.449 24.9238 114.62 24.6691 115.536 24.0484L114.413 22.393C113.946 22.7098 113.219 22.9238 112.127 22.9238V24.9238ZM115.539 24.0463C116.417 23.4464 117.045 22.6313 117.409 21.6278L115.529 20.9465C115.306 21.5601 114.939 22.0341 114.41 22.3951L115.539 24.0463ZM117.405 21.6397C117.758 20.7014 117.926 19.6711 117.926 18.5625H115.926C115.926 19.4695 115.789 20.2557 115.533 20.9345L117.405 21.6397ZM129.459 7.98047H130.459V6.98047H129.459V7.98047ZM129.459 27V28H130.459V27H129.459ZM125.205 27H124.205V28H125.205V27ZM125.205 7.98047V6.98047H124.205V7.98047H125.205ZM129.125 1.38867L128.418 2.09584L128.428 2.1054L129.125 1.38867ZM125.557 4.57031L124.849 5.27749L124.859 5.28704L125.557 4.57031ZM128.459 7.98047V27H130.459V7.98047H128.459ZM129.459 26H125.205V28H129.459V26ZM126.205 27V7.98047H124.205V27H126.205ZM125.205 8.98047H129.459V6.98047H125.205V8.98047ZM125.924 2.98828C125.924 2.58545 126.045 2.31412 126.264 2.09578L124.85 0.681565C124.224 1.30698 123.924 2.10205 123.924 2.98828H125.924ZM126.264 2.09578C126.467 1.89288 126.785 1.73828 127.35 1.73828V-0.261719C126.391 -0.261719 125.514 0.0172811 124.85 0.681565L126.264 2.09578ZM127.35 1.73828C127.897 1.73828 128.212 1.88998 128.418 2.09578L129.832 0.681565C129.171 0.0201766 128.302 -0.261719 127.35 -0.261719V1.73828ZM128.428 2.1054C128.654 2.32573 128.775 2.59406 128.775 2.98828H130.775C130.775 2.09344 130.463 1.29536 129.822 0.671946L128.428 2.1054ZM128.775 2.98828C128.775 3.36503 128.658 3.62945 128.428 3.85359L129.822 5.28704C130.459 4.66742 130.775 3.87716 130.775 2.98828H128.775ZM128.428 3.85359C128.223 4.05256 127.905 4.20312 127.35 4.20312V6.20312C128.294 6.20312 129.16 5.93182 129.822 5.28704L128.428 3.85359ZM127.35 4.20312C126.778 4.20312 126.456 4.04979 126.254 3.85359L124.859 5.28704C125.525 5.93459 126.398 6.20312 127.35 6.20312V4.20312ZM126.264 3.86321C126.042 3.64113 125.924 3.37373 125.924 2.98828H123.924C123.924 3.86846 124.228 4.65575 124.85 5.27742L126.264 3.86321Z" fill="#256748"/>
</svg>
